# xmcd
#
# Track frame offsets:
#	150
#	13606
#	27495
#	42522
#	57491
#	69030
#	77508
#	83936
#	96718
#	111735
#	140398
#	150414
#	160945
#	183463
#	191678
#	202992
#	217522
#	232990
#	249253
#	262929
#
# Disc length: 3660 seconds
#
# Revision: 3
# Processed by: cddbd v1.4b42PL1 Copyright (c) Steve Scherf et al.
# Submitted via: audiograbber 1.80.04
#
DISCID=090e4a14
DTITLE=Lena Horne - The Lady and Her Music 1
DYEAR=2000
DGENRE=Blues
TTITLE0=The Lady Is A Tramp
TTITLE1=I Can't Help Lovin' Dat Man(original)
TTITLE2=Stormy Weather
TTITLE3=Paper Doll
TTITLE4=Old Devil Moon
TTITLE5=Great Day
TTITLE6=Just One Of Those Things
TTITLE7=Honeysuckle Rose
TTITLE8=Lover Man
TTITLE9=Jericho
TTITLE10=Meditation
TTITLE11=Why Was I Born
TTITLE12=The Sping
TTITLE13=From This Moment On
TTITLE14=I Wish I Was Back In My Baby's Arms
TTITLE15=Somebody Loves Me
TTITLE16=Cuchoo In The Clock
TTITLE17=Good For Nothin' Joe
TTITLE18=Where Or When
TTITLE19=Night And Day
EXTD=
EXTT0=
EXTT1=
EXTT2=
EXTT3=
EXTT4=
EXTT5=
EXTT6=
EXTT7=
EXTT8=
EXTT9=
EXTT10=
EXTT11=
EXTT12=
EXTT13=
EXTT14=
EXTT15=
EXTT16=
EXTT17=
EXTT18=
EXTT19=
PLAYORDER=
